/* XPM */
static char *result[] = {
/* columns rows colors chars-per-pixel */
"48 48 60 1 ",
"  c #030403",
". c #060806",
"X c #080807",
"o c #0B0D0B",
"O c #0F120F",
"+ c #0F1210",
"@ c #111411",
"# c #171C15",
"$ c #191D16",
"% c #191D18",
"& c #1C2017",
"* c #20261B",
"= c #252C1C",
"- c #2C3622",
"; c #303C22",
": c #354324",
"> c #3B4B29",
", c #44582B",
"< c #455A30",
"1 c #4B5F31",
"2 c #4F672F",
"3 c #506A2F",
"4 c #4F6630",
"5 c #506631",
"6 c #577333",
"7 c #5A7736",
"8 c #5D7C36",
"9 c #607F36",
"0 c #5C803B",
"q c #648437",
"w c #678B37",
"e c #65893A",
"r c #6B8F39",
"t c #6D943A",
"y c #709739",
"u c #739B3D",
"i c #76AC3F",
"p c #7EAD3E",
"a c #75AC44",
"s c #79AE44",
"d c #77AD49",
"f c #7AAF4A",
"g c #7DB344",
"h c #7FB840",
"j c #7BB148",
"k c #80AF3F",
"l c #80B03F",
"z c #81BA3E",
"x c #8CC63E",
"c c #8DC83E",
"v c #81B541",
"b c #84BB43",
"n c #89BD42",
"m c #85BD48",
"M c #87C142",
"N c #8EC642",
"B c #8EC842",
"V c #8CC54B",
"C c #90C743",
"Z c #90C841",
/* pixels */
"NNxCCCCCCNCCxCCxCxxCNNCxCCCNCCCCNCNNNCCxCCCCNNNC",
"NCCNNCNxCCNNCCCCcCxxNCNNCCCxCCCCCNNCCxCCCCCCNVMC",
"NCNCNMinCCCCNzCcxxxCxCCNxCNCCCCCCNNNCCCCCCCCNNCx",
"CNNCMfmvMNNCNCCCCCCCNCNNCCNCCCCCNNNNzCcCCCCCxCCC",
"CCCCCNNMCCCCCCCCCCCCNnNNCCCZCCCCCCCNzznCCCCCCCCC",
"CCCCCCCCCCCCCCCCCCCNsiiNCZNNNCCCCCnnCzCCCCCCCCCC",
"CCCCCCCCCCCCCCCCCCCCMMxCCNNNNNCCCCCNCCCCCCCCCCCC",
"CCCCCCCCCCCCCCMCCCCCCCCCCBxxNNNCCCCCCCCCCCCCCCCC",
"CCNCBCCCCCNNxvMCCCCCCCCCCCxCCCCCCCCxCCCCCCCCCCCC",
"CCxNBBCCNNCxznbNCCCCxCCCNNCCCCCMnCCCnCCCCCCCCCxn",
"NNNNNNCCNCNNnCCxCCCCCCZCCCNNVNbfbCzCCCCCCCCNCxCC",
"CNNNCCMVNNCNCxCCCCcCCnZZNNCNCNbbnCZCxCCxCCCCxxxC",
"NNCxNvdvNNNCxCCCCCCCnCCnkzCCCCNNnCCCCNCCCCxCxNxC",
"NCNNMbnnNNCCNCCCxxCxCCxu*6CCCCCCCCxCxCNxCCxCCxCC",
"CCCCCCCCNNCCCxCnCxxxxCCuO,pzCCCCxCCxCCCCCCCCCCCC",
"NxCCCCCCNNNxNCCCCCCCCCCuOO%qNNCCCCCCCzNCCCCCCCNC",
"CCBVCCCCCCCCCCCCCCCCCCCu@XX<qvCCCCCxzgvVZCCCCCCC",
"CCBNCCCCCCCCCCCCCCCCCCCuOX X@0MCCCCCNMMCZCMCCCCC",
"CNNNNCCCCNNCCCCCCCCCCCCuO    ,9nCCCCCNNCCMjMCCCC",
"ZBNNNCCCNnznCCCCCCCCCCCuO    X$sCCCCCCCCNfmgnCCC",
"CCNNNCCCNvMbNNCCCCCCCCZu+;6-  o1qnCCCCCCCMCMCCCC",
"CCCCNCCCNMCNxCCCCCCCCCzu@5n5X.  *lCNnCCCCCCCCCNC",
"NNNCCCNCCCCNNNNNxxxCCCCu@3Npr;  &lCMNNxCCCCCCCCC",
"CCNNNCxxNCxCCNCNCCCxCxCu@3NCC1@ &kVvbbCCCCCCCCCC",
"xCCNCxxzxNCCNNNCCxCCNCNu@3NCCzu*&kxCnCCCCCCCCCNN",
"CCCxNxcCNNNNxCCCCCCCCNNu@2NZCCn;=lCcCCnCCCCCNNCN",
"xNCCCCCCNCCNCxCCCCCCNNNu@2NVCCClpzCNCCCxCCNMMxNN",
"CCNCCCCCCCNCCCCCCCzkklkw+3NCCCCCCCNNxCCCCCNaaiNC",
"CCCCCCCCCCCCCCCCCn>#%%%@.2CCCCNnNCCCCCNCCCCMnnCC",
"CCCCCCxCCCCCCVCCpr>-X    4CCCNadsNCCCZBxMNCCCCCC",
"CCCCBBZcCCCNnvnM>%tp%    5CCCCMNMZCCCCCNVCCCCCCC",
"CCCCNNCZCCCNzMgN:o7e#    4CCCCNCNCCCCCCZZCCCCCCC",
"CNNCCNCCCNxNzCNn:.oo.    2CCCCCCCNCNCCxCCCCCCCCx",
"NCCNCCCCCNCNCCCCw5#    *3yCNCCCCCNNNzvzCCCCCCCCC",
"NCNNNCCCNNCCxCxCCn-XXX.>zCzCCCCCNNCNnCbnCCCCCnCC",
"xNNCNCCCNCNNCCCCCnyq987rCnzNNCCCCNNNzCCxCCCCCCCx",
"CCCNNNCCCCZzCxCCCCCCCCNNxkvsNNCCNNCCxCCCNCCCCCxC",
"NCNnhnCCCCZCCCCCCCCNCxCCCxNnNCCCxCCnCCCCCCCCCCCC",
"CCnahfNCCCCCCCCCCCCCxCCNCCCCCCCCCCNCxnCxCCCCCCCx",
"xCCNMVCCCxCxCCxnCCCCCCNNCxNCCCCCCNxCCCCCCCCnvnnC",
"CCCCCCCCCCCCCxxnNNCCCCCCCCCZCCCCCCCCCCCCCCCfnsNC",
"CCCCCCCCCCCCCNMNNCCCCCCCCCCBNCCCCCCCCCCCCCCMVNNC",
"CCCCCCCCCCCCCNNNCCCCCCCCCCBVNNCCCCCCCCMNnCCCCCCC",
"CCCCCCCMnCCCCCCCCCCCCCCCCCBBNNCCCCCCCNvasMCCCCCC",
"CCCCCCNgipNxCNCCCCCCCCCCCCxZNCCCCCNCCNnNNCCCCCNC",
"CCNCCCNnMnxCNCNCCCCCCCNxNNCNCCCCCNNNNNCCNCCCCCCN",
"NCCNCCCCCCNNxCCCCCCCCNNCCNNCCCCCNNCxNCCNCCCCCxNN",
"NNNCCCCCxCCCCNNCCCCxCNCNNCNNCCCCCCCCCNNNCCCCCCNC"
};
