/* XPM */
static char *result[] = {
/* columns rows colors chars-per-pixel */
"48 48 199 2 ",
"   c #241A2C",
".  c #261E31",
"X  c #262435",
"o  c #282937",
"O  c #272539",
"+  c #29263C",
"@  c #2C2C3D",
"#  c #372D35",
"$  c #3F3235",
"%  c #32323D",
"&  c #373C3B",
"*  c #363B3E",
"=  c #413235",
"-  c #38403F",
";  c #3D4A3C",
":  c #424E3E",
">  c #475A3A",
",  c #4E633C",
"<  c #50663B",
"1  c #546A3D",
"2  c #56723F",
"3  c #5A743D",
"4  c #5E7B3E",
"5  c #2D2B40",
"6  c #312F42",
"7  c #2F3040",
"8  c #343444",
"9  c #3A3C43",
"0  c #35354B",
"q  c #393A4B",
"w  c #353653",
"e  c #363855",
"r  c #3C3D52",
"t  c #3B3C5E",
"y  c #3B3C61",
"u  c #3D3D6E",
"i  c #3F3F73",
"p  c #3F4847",
"a  c #3E4551",
"s  c #3F4073",
"d  c #424D45",
"f  c #424C4B",
"g  c #495C42",
"h  c #485648",
"j  c #424455",
"k  c #444B55",
"l  c #44455A",
"z  c #454C5B",
"x  c #4C4F5F",
"c  c #4A5355",
"v  c #47505C",
"b  c #545F57",
"n  c #51565C",
"m  c #535A5B",
"M  c #4F6345",
"N  c #566D46",
"B  c #5B7545",
"V  c #5E7B47",
"C  c #546557",
"Z  c #5C7253",
"A  c #617D4D",
"S  c #627C51",
"D  c #414563",
"F  c #40416B",
"G  c #495260",
"H  c #565C62",
"J  c #565B67",
"K  c #404074",
"L  c #585D71",
"P  c #5B6166",
"I  c #566268",
"U  c #5E6469",
"Y  c #5D7260",
"T  c #5B6473",
"R  c #5E6979",
"E  c #606768",
"W  c #66786D",
"Q  c #626C73",
"!  c #636D7C",
"~  c #667375",
"^  c #697677",
"/  c #6C7E72",
"(  c #66727C",
")  c #69747D",
"_  c #6D7B7C",
"`  c #717B7C",
"'  c #668A3D",
"]  c #6D933D",
"[  c #729B3E",
"{  c #76AC3F",
"}  c #7DAD3F",
"|  c #7DB13E",
" . c #648445",
".. c #65834D",
"X. c #67884E",
"o. c #688A48",
"O. c #698A4F",
"+. c #6D9446",
"@. c #719747",
"#. c #759E45",
"$. c #708F57",
"%. c #779A57",
"&. c #749459",
"*. c #77A045",
"=. c #7AA446",
"-. c #7CAD45",
";. c #77A848",
":. c #7EB345",
">. c #7DA25F",
",. c #6C8266",
"<. c #718F66",
"1. c #769464",
"2. c #7B9968",
"3. c #7C9A69",
"4. c #758879",
"5. c #758A79",
"6. c #7A9373",
"7. c #7F9977",
"8. c #7B937B",
"9. c #84B93F",
"0. c #8CC53F",
"q. c #80AB4E",
"w. c #81B342",
"e. c #86BB45",
"r. c #89BB46",
"t. c #84B34B",
"y. c #8ABD49",
"u. c #928879",
"i. c #819B77",
"p. c #849D7C",
"a. c #83A764",
"s. c #85A967",
"d. c #86A676",
"f. c #87A07E",
"g. c #8FB07D",
"h. c #8FC642",
"j. c #8EC842",
"k. c #8EC449",
"l. c #90C743",
"z. c #90C548",
"x. c #686A82",
"c. c #667181",
"v. c #6B7584",
"b. c #6D7984",
"n. c #6C7689",
"m. c #6E798B",
"M. c #717D84",
"N. c #707788",
"B. c #727C8C",
"V. c #747D91",
"C. c #748385",
"Z. c #798B83",
"A. c #788887",
"S. c #75828C",
"D. c #7D8C8B",
"F. c #768292",
"G. c #7B8493",
"H. c #7C8A93",
"J. c #7D869A",
"K. c #7E8A9B",
"L. c #859989",
"P. c #818D97",
"I. c #828C9B",
"U. c #928C90",
"Y. c #849394",
"T. c #8A9B95",
"R. c #85929D",
"E. c #89949D",
"W. c #8B9A9A",
"Q. c #8DA68B",
"!. c #92AE85",
"~. c #93B480",
"^. c #97B58A",
"/. c #8DA393",
"(. c #8FA098",
"). c #91A699",
"_. c #9AAE9D",
"`. c #828BA0",
"'. c #8794A5",
"]. c #8A95A2",
"[. c #8C9AA4",
"{. c #8F9BA8",
"}. c #929DA6",
"|. c #929CAA",
" X c #969CB5",
".X c #97A7A7",
"XX c #95A3AC",
"oX c #9EB1A2",
"OX c #9AA5B4",
"+X c #9AAAB2",
"@X c #9DA4BB",
"#X c #9DAEB8",
"$X c #9EB1B9",
"%X c #A1B6A4",
"&X c #A1AEBB",
"*X c #A3B3B6",
"=X c #A4B4BB",
"-X c #A6ADC4",
";X c #A7B8C1",
/* pixels */
"h.h.0.l.l.l.l.l.h.l.0.h.l.h.l.0.l.0.0.j.l.h.l.h.h.h.l.l.l.l.l.l.h.h.h.h.h.h.h.h.l.l.l.l.h.h.h.h.",
"l.h.l.h.l.0.h.l.h.h.l.h.h.h.l.l.0.h.0.0.h.l.h.h.h.h.l.l.l.h.h.l.h.h.h.h.h.h.h.l.l.l.j.h.j.k.k.j.",
"h.h.h.h.h.:.4./.T.$.&.&.$.&.&.$.&.&.&.%.&.&.&.&.$.&.&.$.&.&.&.&.&.&.&.&.&.&.$.d.g.s.z.j.j.h.h.0.",
"h.l.l.l.h.@.K.#X&X) N.v.) N.B.M.B.) _ v.S._ M.N.` / V.8._ M.v._ ` N._ M.V.Q M.=X*X/.j.j.j.h.h.h.",
"l.l.l.l.h.;.{.@X&XQ V.N.I.V.x.P.v.H.G.B.B.G.Q I.B.B.V.N.v.B.) V.S.v.P.G.x.I.M.;X;X).l.l.l.l.l.l.",
"l.l.l.l.h.=.S.3.A.0 r 5 r 9 8 x 8 q l q q r % q 9 8 j 9 6 l % q q 8 l r 8 r H J.<.(.l.l.l.l.l.l.",
"l.l.l.l.z.t.S.n.n.9 + + + + + + + + + + + + + + @ + + + + + + + + + + + + + 9 M.Q T.l.l.l.l.l.l.",
"l.l.l.l.l.h.2.^ N.> + + + + + + + + + + + + + + + + + + + + + + + + + + + O : v.I i.l.l.l.l.l.l.",
"h.h.h.j.j.j.3.n.B.1 + + @ + . . . + . 5 . 5 5 . . . . .   . O . . . . + + + 1 c.Q p.l.l.l.l.l.l.",
"h.h.h.j.j.j.3.v.n.; + + + + + .     .   .         .           . + + + + + + & Q ! p.l.l.l.l.0.l.",
"h.h.j.h.h.h.3._ v.4 + + + + + + + .                           + + + + @ + + 3 N.J Q.l.j.l.0.l.0.",
"h.h.h.h.h.h.2.V.v.1 + + @ + + + 5 .                             . + + + + + , v.I p.l.j.0.0.l.0.",
"h.j.h.0.h.w.<.m.! d + + + + + + + . .             .           . + + + + + + & v.R p.j.j.0.0.j.l.",
"l.l.l.l.h.e.2.n.B.' + + + + + + + .           . . . . . .   . . + + + + + + 3 ) R p.j.z.l.l.l.l.",
"0.l.0.l.h.h.3.v.! < + + + + + + .     . . 5 + + + + + + + O . . + 5 @ + + + , ( T f.j.l.j.l.h.h.",
"l.l.l.l.z.l.2.M.v.: + + 5 + + X . O + + . + + + + + + + + + + + + + + + + + & v.! f.l.l.z.j.h.h.",
"h.h.h.h.z.h.3.~ n.' + + + + + O + + + + + + + + + + + + + + + + + + + 5 + + 2 ~ T Q.h.h.j.h.h.j.",
"s.a.#.*.*.*.,.C.M.p 5 5 5 5 5 @ 5 5 5 5 5 @ 5 5 5 5 @ 5 5 5 5 5 5 5 5 5 5 5 p ( Y Z.#.*.*.*.%.s.",
"$X$Xv.H.v.M.G.$X$XF.m.c.F.F.v.F.V.c.n.n.K.m.F.v.v.F.V.F.B.m.n.v.J.n.n.F.m.c.F.[.$XXX( c.S.F.`.$X",
"$X$X( ( F.C.G.=X=X! m.m.v.n.B.v.n.V.n.V.( c.! v.F.c.v.R n.B.m.B.c.m.B.! m.F.c.'.;X+X! A.b.b.K.;X",
"Q..XY.[.Y.Y.C.!.(.P.B.) E.{.b.W.{.v.S.S.E.C.R.P.M.}.S.N.{.F.B.I.`.S.P.I.I.P.]. Xc.+XY.4.}.T.|.6.",
"D.Y.[..X*X*XA.L.Y.P.~ m n P E h m b H U H J H J U c U H J I m n n U H n j m Q ].R XX.X=X.X+XXXZ ",
"L.A.y.h.z.z.3.I.I.q.X.o.r.k.=.N w.]  .:.r.r.+.o.=. .@.y.w.*.A e.V *.:.y.@.o.e.4.K.A.y.k.z.z.i.i.",
"4.H.h.h.l.z.s.!.W.q.Z f 3 [ f k @.*.a p :., j ..h.Z f 4 [ d k e.c p '  .p C h./.Z oXj.h.z.j.g.( ",
"J L 9.h.h.0.a.&XI.q.w.M ] } g o.r.9.B g -.1 d e.h.*.g  .[ h  .h.+.h +.] d @.h.T.b.).j.h.h.j.C z ",
"a X w.j.h.h.1.R.&XS O...X.X...O.O.O.....O...A O...X.....O.A X.O.O.V ....A O.O.T._ .Xj.j.h.j.& 8 ",
"a o :.0.t.i.G.|.OXF i K i i K K K K K s K K i i K s s s s K i K i s i i s s s `.b.oXj.h.h.h.* 8 ",
"r 7 | 6.{.-X|.N.OXF i i i i K i i s i i K i i i s i i K i i i i i i i i s s s K.S.oX0.;.;.{ g 7 ",
"B.M.w.@X-X-X@X}.F.y K i i i i i u i i u i i u u i i i i i u i u i i i i u i i J.v._.4.5.Z.Z.7.c.",
"W.I.} @X-X-X@X|.`.l i K i i i i K s i s i i i i i i i i i i i i i K i i i i i I.! oXm.J.J.|.8._ ",
"}.D.9. X XN.L |.].F i K i K K s i i i i i i i i i i i K K K i K K K i i i i i J.! oX! m.B.n.8.~ ",
"{.G.w.x.l + x OX|.F i i i i i s i i i i i i i i i i K i i i i i K i i i i i i G.v._.9 $ = % i.N.",
"E.[.e.4 4 4 / W.@XF u u u i u u u u u u i u u i u u u u u u i i u i u u i i i `.( oX* X X o 7.F.",
"M.}.0.j.0.r.s.U.&XF i i i i i i i i i i i i i i i i i u i i i i i i i i i i i `.T oX- o X o 8.c.",
"{.C.<.4.4.L.4..XE.F K i i i i i i i i i i i i u K i i i i i i i i i u K i i i J.v._.& X o + 8.b.",
"`.b.4.'.U.u.^ }.|.y i u z G v D u i i i i i u F F F i u u i i u z G G D i i i J.! %X9 o X + 8.T ",
"R.A.Y m.` S / }.'.y i i @ + % e i i i i i i D k k k i i i i i i 8 @ O w s i i J.T oXp a a a 5.T ",
"{.S.; $ = = W &X{.e i i e e 0 y i i i i i i w X o @ s K i i i i e 0 w y i s i J.b._.p $ $ # 8.v.",
"+XXX; X . X / ].-X0 y y y y y y y y y y y y t t t t y y y y y y y y y y y y y J.m.%X* X X @ 4.{.",
"(.H.; X . + / P.`.@ + + + + + + + + + + + + + + + O O + + + + + + + + + + + X F.z %X* X X o 8.~ ",
"XXC.; X O X / &X].% + + + + + + + + + + + + + + O O + + + + + X + + + O + + X B.B._.% X X @ 8.b.",
"L.[.; X o X / H.$X@ + + + + + + + + + + + + X X X X + + O + + X O + + O O X X G.! oX* o X o Z.4.",
"g.d. .B B B &.^.^.N < 1 1 1 < 1 < 1 1 1 N 1 1 1 , 1 1 1 < N 1 N 1 1 N < 1 < , 3.d.~.B B B V >.7.",
"l.h.h.l.h.l.h.k.k.h.h.h.h.h.j.h.l.l.l.l.l.l.0.l.h.h.h.h.0.h.h.l.l.z.h.h.h.h.:.;.;.j.j.h.j.j.j.j.",
"h.h.l.l.l.l.h.-.{ | 0.l.z.l.l.l.l.l.l.l.l.l.l.l.h.h.j.j.h.l.l.l.l.0.l.l.0.l.h.h.h.l.l.l.j.j.j.l.",
"h.h.h.l.l.l.h.h.h.9.h.l.h.j.h.l.l.l.l.l.l.l.0.l.h.l.h.z.l.l.l.l.l.l.h.l.l.h.l.h.h.l.l.l.z.z.l.l.",
"0.l.h.l.l.l.l.l.h.h.0.l.l.0.l.l.l.l.l.l.l.l.l.0.0.h.l.h.l.l.l.l.l.0.l.0.l.h.h.h.l.l.l.l.l.l.h.h.",
"l.l.l.0.0.l.l.l.h.l.l.l.l.h.h.l.l.l.l.l.0.l.l.l.l.h.l.h.l.l.l.l.l.l.l.l.h.h.l.h.l.l.l.l.l.0.h.l."
};
