/* XPM */
static char *result[] = {
/* columns rows colors chars-per-pixel */
"48 48 225 2 ",
"   c #4D1D1C",
".  c #48271F",
"X  c #4E2321",
"o  c #4B2921",
"O  c #522624",
"+  c #592729",
"@  c #572B29",
"#  c #573926",
"$  c #583927",
"%  c #553525",
"&  c #5E3D37",
"*  c #62272C",
"=  c #652D32",
"-  c #6C2D36",
";  c #7C2A37",
":  c #653435",
">  c #653A35",
",  c #663639",
"<  c #693639",
"1  c #673B39",
"2  c #6A3739",
"3  c #72313C",
"4  c #713D3C",
"5  c #78303E",
"6  c #08490B",
"7  c #144712",
"8  c #0D5313",
"9  c #165518",
"0  c #10420D",
"q  c #29451C",
"w  c #28641A",
"e  c #245623",
"r  c #1C7127",
"t  c #3B623E",
"y  c #2D6F2C",
"u  c #5A4A25",
"i  c #5C4728",
"p  c #634B2E",
"a  c #64592D",
"s  c #6D4838",
"d  c #6F5635",
"f  c #5E6232",
"g  c #66682D",
"h  c #6C782F",
"j  c #6B6634",
"k  c #6E7532",
"l  c #6E7B30",
"z  c #717434",
"x  c #747A37",
"c  c #786A3D",
"v  c #7D3D48",
"b  c #763C43",
"n  c #3C6440",
"m  c #774448",
"M  c #785351",
"N  c #486E4B",
"B  c #7B6B44",
"V  c #637766",
"C  c #822A38",
"Z  c #833547",
"A  c #88364A",
"S  c #86394A",
"D  c #933952",
"F  c #983954",
"G  c #9F3D5A",
"H  c #94354A",
"J  c #A53D5D",
"K  c #AB3957",
"L  c #BD3C5D",
"P  c #A0324A",
"I  c #AF3F63",
"U  c #8B424A",
"Y  c #934C4E",
"T  c #885B46",
"R  c #854A53",
"E  c #994959",
"W  c #89555C",
"Q  c #815455",
"!  c #91525F",
"~  c #A4415E",
"^  c #A1495B",
"/  c #846044",
"(  c #867350",
")  c #945D67",
"_  c #9B5966",
"`  c #A84864",
"'  c #B5466A",
"]  c #A6576D",
"[  c #A85B71",
"{  c #BA5777",
"}  c #B84D70",
"|  c #976769",
" . c #827B6C",
".. c #927774",
"X. c #A26975",
"o. c #A76D7A",
"O. c #A96D7B",
"+. c #A66374",
"@. c #AB6C7A",
"#. c #C34A74",
"$. c #CB4D79",
"%. c #C44773",
"&. c #D34C7D",
"*. c #C7537C",
"=. c #2B8C3B",
"-. c #31943E",
";. c #3B8C34",
":. c #4B8726",
">. c #468526",
",. c #57912F",
"<. c #609A2E",
"1. c #798D37",
"2. c #778637",
"3. c #7D9739",
"4. c #68973A",
"5. c #7AA73A",
"6. c #7BB33A",
"7. c #6BA534",
"8. c #359C46",
"9. c #339043",
"0. c #3DAE52",
"q. c #3DB053",
"w. c #38A64B",
"e. c #41814A",
"r. c #6B9E47",
"t. c #6E9F50",
"y. c #42B95B",
"u. c #73A845",
"i. c #70A647",
"p. c #778A7A",
"a. c #709370",
"s. c #46C261",
"d. c #81993C",
"f. c #83A93C",
"g. c #87B23E",
"h. c #88B43F",
"j. c #84BA3E",
"k. c #8AC23D",
"l. c #8DC83E",
"z. c #89B640",
"x. c #8CBD40",
"c. c #84B843",
"v. c #83AF4C",
"b. c #8EC542",
"n. c #8EC843",
"m. c #8DC54B",
"M. c #90C743",
"N. c #90C841",
"B. c #AE7481",
"V. c #B37585",
"C. c #B97C8C",
"Z. c #B77889",
"A. c #D54E80",
"S. c #CC5E84",
"D. c #D65384",
"F. c #DD5588",
"G. c #DA5788",
"H. c #E24D82",
"J. c #E5548C",
"K. c #EA568F",
"L. c #E95A92",
"P. c #FC5A9B",
"I. c #F45996",
"U. c #C96486",
"Y. c #C17F92",
"T. c #CA7892",
"R. c #D57998",
"E. c #D87799",
"W. c #D36D91",
"Q. c #E96296",
"!. c #EC6A9C",
"~. c #E76999",
"^. c #FB619E",
"/. c #F2679E",
"(. c #F96AA4",
"). c #E57CA3",
"_. c #E976A1",
"`. c #FC73AB",
"'. c #FB7AAE",
"]. c #F37BA9",
"[. c #FB7FB0",
"{. c #BD8091",
"}. c #AEBAAF",
"|. c #C58597",
" X c #C3909C",
".X c #CC8DA1",
"XX c #D18EA3",
"oX c #D393A7",
"OX c #D993A9",
"+X c #DB99AF",
"@X c #D694A9",
"#X c #DB9AB1",
"$X c #C794A0",
"%X c #EA83AA",
"&X c #F685B1",
"*X c #FD84B4",
"=X c #F68EB7",
"-X c #FA8BB6",
";X c #FD8EBB",
":X c #E49EB6",
">X c #EA9EB9",
",X c #E798B4",
"<X c #FC93BC",
"1X c #F898BD",
"2X c #EE8AB0",
"3X c #DEA7B8",
"4X c #E6A2BA",
"5X c #E9A3BC",
"6X c #E2AABC",
"7X c #B4C5B4",
"8X c #FF93C1",
"9X c #FE9AC2",
"0X c #FF9FC8",
"qX c #EDA7C1",
"wX c #EFABC5",
"eX c #FDA3C6",
"rX c #F3AAC5",
"tX c #FFA7C9",
"yX c #FEACCC",
"uX c #F5AAC6",
"iX c #FDB1CE",
"pX c #F5B0CB",
"aX c #FFB6D2",
"sX c #FEB9D4",
"dX c #CDD6CD",
/* pixels */
"b.b.b.N.n.M.b.k O X X X X X % j.k.k.l.b.z.$ O X X X X o k x.M.M.n.b.k.g.% X . .   X X X % z.M.M.",
"b.M.b.N.M.M.b.k @ W ) ) ) ) ) 2.2.1.k.f.x U E ) ) ) ) D B 2.x.M.m.1.2.2.| ) ) ) _ ) ) m % v.x.M.",
"b.b.N.b.b.n.4.z , oX5X4X4X:X@Xm i p g.l s A.).6X4XqX:XL.^ p z.x.j.i i m oX:X:X:X:X4X4X| $ z.M.k.",
"N.b.b.M.b.r.m.j 1 qXoXX.X.R.-XC.V.o.c T ' -XtXsXsXsXaX8XW.J j g j X.B.Z.*XR.X.X.X.B.pXO.% g.M.M.",
"M.M.M.M.n.n.b.k 1 5XO.O O D G.OX>X,X, ` `.tXaXaXaXaXaXaX;XQ.Z 4 R qXyX9XG.D O O X 1 5Xo.# c.M.M.",
"M.M.M.M.n.n.x.k 1 :Xo.X X - A W U.~.- [ 9XiXaXaXaXaXaXaXeX-X*.U..XpX9X!.G - X X X , 5XO.% g.M.M.",
"M.M.M.M.M.M.b.z 1 qXo.O X X X - G %.Z Z.sXsXaXaXaXaXaXaXsXyXG.2XsXaX8XQ.Z * X O X , qXO.$ g.M.M.",
"M.M.M.M.M.M.b.z 1 >Xo.X X O = A.J 3 D.&XsXpXaXaXaXaXaXaXaX>Xb B.aXaXaXtXL.E O O X 1 5XX.$ c.M.M.",
"b.b.b.M.b.M.b.z 1 4XO.O X 5 ` ].] : _.9XaXaXaXaXaXaXaXaX0X).: O.aXaXaXyX-XU.D + O , 5XO.$ g.b.M.",
"n.M.l.m.l.l.b.z 1 4Xo.O O ` /.eXX., :XaXaXaXaXsXaXaXaXyX&XF.- O.aXaXaXaXaX&XG.- O > 5XO.$ g.b.b.",
"b.n.b.b.b.M.M.z 2 5XX.+ I ~.0XaXo., 5XaXaXaXaXaXaXsXaX*XS.H ' ).aXaXaXaXaXtX-X$.Z : 5XO.% g.M.b.",
"M.b.b.b.M.M.M.z 1 5XZ.A ~.<XaXpXO., qXaXaXaXaXaXaXyX<XD.A = ~.<XaXaXaXaXaXaXyX'.{ S |.| g h.b.b.",
"b.b.l.l.b.u.r.j 1 5X%XD.1XyXsXaXO., 5XaXaXaXaXaXaX8X!.A = : 2XtXaXaXaXaXaXaXaXeX_.$.R B 3.b.b.M.",
"b.6.<.<.<.<.j.k 1 5X9X*XiXaXsXpXo.: %XtXaXaXaXiX9X~.I + - E wXaXaXaXaXaXaXaXaXaX9X!.: l b.b.b.b.",
"6.:.9 8 9 w 6.z b 5XiXiXaXaXaXaXB.< G.&XiXaXsXyX~.I = O G /.yXaXaXaXaXaXaXaXaXaXaX4X> h M.M.M.b.",
">.;.-.r =.=.;.d } rXaXaXaXaXaXaXoXO.` U.-XiXaXrX` J G + ] ;XiXaXaXaXaXaXaXaXaXaXaX5X1 z x.M.b.M.",
"6 =.s.-.0.s.9 Q (.yXaXaXyXpXqXrXrX,Xm ` L.0XyX>Xb J A.b B.iXyXrXqXwXuXiXsXaXaXaXaX5X1 z b.M.M.M.",
"6 r w.s.q.9.8  .rXaXaXiX'.{ m m { `.@X[ Z (.`.(.F.J v .X>XyX].U.m m { '.yXsXaXaXaX4X1 k x.M.M.M.",
"6 r w.y.q.9.9  .aXaXtX=X*.~ A A J S.=XT.! } %.%.%.` | wXyX=X$.G A A J *.;XtXaXaXaX5X1 k b.M.M.M.",
"6 =.s.8.q.q.9 V pXaX;XL.Z ` D.D.J S Q.).XXv 3 b 3 [ #XaX8XL.S J D.D.~ Z Q.;XaXaXaX5X1 f b.M.m.M.",
";.;.-.e.9.9.q ..aXaXT.J D U.*X*XS.F J E.pXO.| ) | .XsXaXR.J D S.*X*XS.D ~ R.aXaXeX%X: u l l 5.M.",
"j.:.9 p.n 0 o B.aXaXV.v L.-XiXiX-XJ.v Z.pXiXpXiXpXaXsXaXV.v L.-XaXiX;XL.v Z.pXsX&XA.3 , 1 1 x f.",
"b.:.e }.a.6 o B.aXaX#XC.=XtXaXsXeX=XC.#XsXsXaXaXaXaXaXaX#XC.=XeXaXaXtX=X{.+XaXaXT.G ' { C.C.( j ",
"b.:.w dXp.0 & V.aXsXsXsXsXaXaXaXsXsXsXsXsXsXaXaXaXaXsXsXsXaXaXaXaXaXaXaXsXaXaXsXV.m Q.;XsXsXo.O ",
"b.>.9 p.N e .XrXaXaXaXaXaXaXaXaXsXsXsXsXaXaXsXsXsXsXaXaXaXaXaXaXaXaXaXaXaXaXaXaXrX:XtXyXaXaXo.O ",
"b.>.9 V n e 3XaXaXaXaXaXaXaXaXaXsXpX{.C.C.C.C.C.C.C.C.C.#XaXaXaXaXaXaXaXaXaXaXaXaXaXaXaXaX1X] O ",
"b.>.9 V n e 6XaXaXaXaXaXaXaXaXaXaXqXm , , , < < b : : : V.pXaXaXaXaXaXaXaXaXaXsXaXaXsXaXyX(.^ O ",
"k.>.9 V t e qXsXsXaXaXaXaXaXaXsXsX:X* * C ; ; ; ; ; ;   X.sXaXaXaXaXaXaXaXaXaXaXsXsXsX0X].~ T x ",
"n.:.e v.N e  X>XtXaXaXaXaXaXaXaXaXqXM A P L L L L K H v C.sXaXsXaXaXaXaXaXaXaXaXyXtX#XE.$.s 2.k.",
"m.N e 7Xa.7 M U.'.iXaXaXaXaXaXaXaXyX.X_ C &.H.H.H.K b C.#XsXaXaXaXaXaXaXaXaXaXaX<X_._ R S 2.g.M.",
"b.,.y 7Xa.w u U G.tXaXaXaXaXaXaXaXaXsXC.m $.A.&.&.` W wXsXaXaXaXaXaXaXaXaXaXaXeX_.%.s u a x.M.b.",
"b.b.5.y ,.j.c.z b >XaXaXaXsXaXsXaXaXsXpX+Xb = = = +.wXaXaXaXaXaXaXaXaXaXaXaXyX/.` > f.g.z.b.M.b.",
"b.b.j.:.7.b.b.k , ).eXaXaXaXaXaXaXaXaXaXuXB.X.X.X.oXsXsXaXaXaXaXaXaXaXaXaXaXrX} T x x.b.b.M.b.M.",
"b.b.n.j.x.M.b.k : F.&XiXaXaXaXaXaXaXaXaXiXpXwXwXwXpXaXaXaXaXaXaXaXaXaXaXaXiX4X4 z x.b.M.M.b.b.b.",
"M.b.N.M.M.M.M.g.2.S *.*XiXaXaXaXaXaXaXaXsXsXsXsXsXaXsXaXaXaXaXaXaXsXaXsXsX9X!.= z b.M.M.M.b.M.b.",
"b.b.M.b.n.M.M.M.z.a E G.1XiXaXaXaXaXaXaXaXaXaXaXaXaXaXaXaXaXaXaXaXaXaXiXtX_.#.s 1.b.M.M.M.b.M.b.",
"n.M.b.b.b.M.M.M.j.f.c D !.=XaXiXaXaXaXaXaXaXaXaXaXaXaXaXaXaXaXaXaXaXaXyX'.{ 4 d.g.M.M.M.M.b.b.M.",
"M.b.b.M.u.l.M.M.N.l.1.d ' ~.9X1XyXaXaXaXsXaXsXsXaXaXaXaXsXsXaXtX1X1X1X=X$.Y g x.M.M.M.M.M.M.b.b.",
"l.b.b.r.j.t.M.M.N.N.k.f.p ` L.I.*XiXiXiXiXiXyXiXiXiXiXiXiXiXiX*X^.P.I.F.- z x.M.M.M.M.M.N.b.M.b.",
"M.M.M.M.N.n.M.M.M.M.N.j.x T E ~ S.*X*X*X*X*X*X*X*X*X*X*X*X*X*X`.P.P.&.D @ l x.M.M.M.M.l.i.b.M.b.",
"M.M.M.M.M.M.M.M.M.M.k.h.h.x > : } ^.P.P.P.P.P.P.K.K.K.P.P.P.P.P.P.^.' : : x g.c.x.M.M.t.n.r.N.N.",
"M.M.M.M.M.M.M.M.M.M.1.u u | oX@X,X<X^.P.P.P.P.K.A 5 H K.P.P.P.P.^.9X:XoXoX| i i 2.M.M.M.N.N.n.M.",
"M.M.M.M.M.M.M.M.x.3.( W W |.aXaXtX<XP.P.I.$.%.' d a d ' %.$.I.P.^.<XtXaXaX|.W Q ( 3.j.N.M.M.M.M.",
"M.M.M.M.M.M.M.M.z.p | #X#XqXaXaX;X(.P.P.J.Z - s d.f.d.4 - Z J.P.P.(.<XaXaX5X#X#X| a h.N.M.M.M.M.",
"M.M.b.M.M.M.M.i.4.@ [ 8X8X8X;X;X`.P.P.&.~ j g k M.k.x.h g j J &.P.P.`.;X8X8X8X8X] % g.M.M.M.n.b.",
"M.b.b.M.M.M.M.M.g.i E F.J.J.J.J.J.J.J.^ p h.k.j.M.M.M.M.b.g.p ^ J.J.J.J.K.K.J.J.E p g.M.M.M.b.M.",
"b.M.M.b.l.M.M.M.h.1.T D D D D D D D D T 1.h.M.M.b.b.M.M.M.x.1./ D D F D D A H D T 1.b.M.M.b.b.M.",
"b.b.M.b.M.M.M.M.M.b.k X X X X X X X o z M.N.M.k.M.M.b.b.M.b.b.z X X X X X X X O k b.M.M.M.N.b.b."
};
