/* XPM */
static char *result[] = {
/* columns rows colors chars-per-pixel */
"48 48 216 2 ",
"   c #4F2422",
".  c #542626",
"X  c #532926",
"o  c #562A29",
"O  c #5B2C2D",
"+  c #563226",
"@  c #54342D",
"#  c #5B332A",
"$  c #602A2E",
"%  c #692C34",
"&  c #732D38",
"*  c #663535",
"=  c #74353D",
"-  c #0F5211",
";  c #214C1C",
":  c #1E6319",
">  c #266B1D",
",  c #265B24",
"<  c #37592F",
"1  c #1F752A",
"2  c #2A652A",
"3  c #38732E",
"4  c #3B6936",
"5  c #5E4D2D",
"6  c #61492D",
"7  c #664C32",
"8  c #684E34",
"9  c #6A5336",
"0  c #6C5C33",
"q  c #735239",
"w  c #79593C",
"e  c #416E28",
"r  c #40613A",
"t  c #6C6637",
"y  c #6D6E33",
"u  c #78683A",
"i  c #6E7433",
"p  c #727535",
"a  c #757638",
"s  c #7B7C3C",
"d  c #743E43",
"f  c #7C3944",
"g  c #3E6440",
"h  c #744345",
"j  c #794747",
"k  c #774E48",
"l  c #794E49",
"z  c #785241",
"x  c #71534C",
"c  c #7E4B51",
"v  c #486E4B",
"b  c #567159",
"n  c #7A6A43",
"m  c #7D7243",
"M  c #822D3A",
"N  c #873A4B",
"B  c #843C4A",
"V  c #92394B",
"C  c #933B52",
"Z  c #9B3E57",
"A  c #A73B59",
"S  c #B73A5B",
"D  c #88474D",
"F  c #885848",
"G  c #894A54",
"H  c #9B415A",
"J  c #964B59",
"K  c #865A56",
"L  c #8D535C",
"P  c #975553",
"I  c #A5405F",
"U  c #A34C5D",
"Y  c #A4525F",
"T  c #856044",
"R  c #816A40",
"E  c #8A6F56",
"W  c #9B4D62",
"Q  c #995564",
"!  c #945C66",
"~  c #955E68",
"^  c #A54361",
"/  c #AB4564",
"(  c #AA4C67",
")  c #B7486D",
"_  c #AB536A",
"`  c #A45B6D",
"'  c #B7526E",
"]  c #BE4971",
"[  c #BB5473",
"{  c #B95976",
"}  c #966567",
"|  c #8C766F",
" . c #987166",
".. c #A66373",
"X. c #A46B77",
"o. c #A56D79",
"O. c #AA6B7B",
"+. c #A67178",
"@. c #C7456F",
"#. c #C94A77",
"$. c #D64C7C",
"%. c #CC527F",
"&. c #C6597D",
"*. c #2A8436",
"=. c #388B35",
"-. c #2D923D",
";. c #488528",
":. c #4D8929",
">. c #5C972D",
",. c #548B35",
"<. c #748235",
"1. c #7C833A",
"2. c #7C8C3A",
"3. c #689835",
"4. c #7D953A",
"5. c #77AA3A",
"6. c #74AD39",
"7. c #379346",
"8. c #38A44B",
"9. c #3CAE52",
"0. c #3FB456",
"q. c #79A946",
"w. c #7BB244",
"e. c #69876B",
"r. c #6E9865",
"t. c #80933C",
"y. c #819D3B",
"u. c #82A43B",
"i. c #84AB3D",
"p. c #86B33E",
"a. c #88B43F",
"s. c #84BC3D",
"d. c #8ABA3F",
"f. c #8CC43F",
"g. c #85B843",
"h. c #8ABA40",
"j. c #8EC542",
"k. c #8EC841",
"l. c #90C743",
"z. c #BE6280",
"x. c #B47585",
"c. c #B67686",
"v. c #B47886",
"b. c #B67A89",
"n. c #BC7B8D",
"m. c #D84F81",
"M. c #CE5681",
"N. c #CB5A82",
"B. c #DF5186",
"V. c #D85686",
"C. c #DE598C",
"Z. c #E9578F",
"A. c #F55997",
"S. c #FB5C9B",
"D. c #C66685",
"F. c #CC6186",
"G. c #D5628C",
"H. c #D8648E",
"J. c #DB6591",
"K. c #DB6C94",
"L. c #CB7994",
"P. c #D57998",
"I. c #DB7B9D",
"U. c #E56999",
"Y. c #F9619E",
"T. c #E3749D",
"R. c #FB65A0",
"E. c #FA6CA4",
"W. c #E47FA4",
"Q. c #EB79A5",
"!. c #FA72A8",
"~. c #F37FAC",
"^. c #AF878C",
"/. c #91AA91",
"(. c #A1B4A2",
"). c #C68698",
"_. c #CA8399",
"`. c #D1819B",
"'. c #CE8DA1",
"]. c #D18EA3",
"[. c #DD8CA9",
"{. c #CA9EA8",
"}. c #D290A5",
"|. c #D693A9",
" X c #DB93AB",
".X c #DB99AE",
"XX c #DF9BB3",
"oX c #E987AC",
"OX c #F183AE",
"+X c #F088AF",
"@X c #E293AF",
"#X c #EF8DB3",
"$X c #FC84B3",
"%X c #F38BB3",
"&X c #FC89B6",
"*X c #F78DB9",
"=X c #FA8DB9",
"-X c #E39CB5",
";X c #EC99B8",
":X c #FA95BD",
">X c #F499BC",
",X c #E7A5BD",
"<X c #ECA2BD",
"1X c #F4A0BF",
"2X c #FA9DC2",
"3X c #ECA6C1",
"4X c #EDABC3",
"5X c #F5A2C2",
"6X c #FBA3C6",
"7X c #F1ABC6",
"8X c #FDA6C8",
"9X c #F4AEC9",
"0X c #FDABCB",
"qX c #F5B0CB",
"wX c #FCB2CE",
"eX c #FFB6D2",
/* pixels */
"j.j.4.# o o o o o o o 6 4.d.h.j.j.j.p.p + o o o o o 6 y.h.f.d.d.i.6 o o o X X + i h.j.j.l.j.k.l.",
"j.j.g.6 h ! ~ } ~ ~ ~ } 1.<.4.h.j.g.2.F J ~ ~ ~ ! J D a u.d.4.<.m K } ~ ~ ~ K * i s.l.j.j.l.j.j.",
"j.h.5.8 } }.|.'.].}.}.).K q t u.p.u.w Y G. XXXXXXXI.N.F s y.t 9 K _.|.].]. X).h y 5.j.j.l.j.l.j.",
"j.j.u.8 x.XXv.X.X...L.oXn.+.+.u y u Y G.*XeXeXeXeX2XQ.{ P n  .x.n.W.L.X.o.'.|.k t w.q.j.l.j.l.j.",
"l.h.u.7 X.'.c @ O $ H V.#X>X|.! j D H.%XwXeXeXeXeXwX5XQ.( l `. XP.F.H * * O.}.l i g.j.l.l.l.l.l.",
"l.l.u.7 X.'.d X     & W T.:X7X'.D.%.+X8XwXeXeXeXeXeX0X*X..f F.D.W N % X O X.'.k p h.l.l.l.l.l.l.",
"l.l.5.7 x.'.h X   . % Z U.:XwX9XoXG.>XwXeXeXeXeXeXeXeX9Xn.H ) A f O .   O o.}.x p h.l.l.l.l.l.l.",
"l.l.q.5 X.'.d X   $ W H.:X0XeX9Xx.L @XwXeXeXeXeXeXeXeX0XoX%.N ^ ] & o   @ o.'.l p h.l.l.l.l.l.l.",
"l.l.u.8 X.}.h . $ Z N.%X0XeXeX7Xx.f P.2XeXeXeXeXeXeXeXeX2XP.f _ K.( f . o X.}.k a d.l.l.l.f.f.f.",
"l.h.u.8 X.].h O f M.OX0XeXeXeX7Xx.B N.~.8XeXeXeXeXeXeXeX0X Xc O.;XU.I % $ X.}.l a f.f.f.l.f.f.f.",
"l.d.u.8 X.].j N &.OX6XeXeXeXeX0XI.) I N.~.8XeXeXeXeXeXeXwX.Xc O.7X:XK./ d o.'.l a d.l.k.l.l.f.f.",
"l.l.p.y  .c.J ' Q.6XeXeXeXeXeXwX2XG.f C N.*X8XwXeXeXeXeXwXXXc O.4X0X=XJ.W z.}.l p h.l.l.f.l.f.f.",
"l.f.d.y.R L &.T.2X0XeXeXeXeXeXeX2X[.f d C J.*X0XeXeXeXeXwX.Xc +.7XeX0X%XG.oX].k y q.q.g.f.f.f.f.",
"l.l.l.a.p j K.:XwXeXeXeXeXeXeXeXqX-XW & % A J.2X0XeXeXeX5XI.h x.7XeXeX0X%X:X Xk i 5.>.>.>.>.6.f.",
"l.l.l.a.p l  XwXeXeXeXeXeXeXeXeXeX2XK.I $ f ( U.6XeXeX8XOXN.G x.7XeXeXeX0X0X.XK i 3.3 : : > :.6.",
"f.l.l.a.p z .XwXeXeXeXeXeXeXeXwXeX8X%X` d C I { ;XwX0X%XF./ x.].9XeXwXeXeXwX<X{ n ;.-.*.1 *.=.=.",
"l.l.j.h.a l .XwXeXeXeXeX6X3X-X-X3X6X3Xc.G ) I H [.2X2XC.( ! ].-X-X-X;X0XeXeX8XI.K 2 9.8.8.9.*.- ",
"l.l.l.h.p x .XwXeXeXeX8X~.z.L L z.~.2X-Xn.C I M.U.!.U.W z.L.T.z.L L z.~.6XeXeX-Xm 2 7.9.0.8.1 - ",
"l.l.l.h.p k .XwXeXeX6X+XM.^ C C ^ N.#X2XXXx.( ) ] M.) Q n.W.M.^ C C / M.+X6XeX4Xb , 7.8.0.8.1 - ",
"j.j.h.5.t k  X0XeXwX*XH.Z / M.M./ H J.*X7X].x.f f N L L.W.C.H / M.%./ Z J.%X0X4X/.2 8.8.8.9.*.- ",
"h.5.<.p 5 d I.2XwX0XP.( ^ F.~.~.N.^ / P.wXqX'.x.X...x.,XP./ ^ F.~.~.N.I ( I.qX4X| < 7.7.g 8.=.;.",
"u.m k q d N M.oX0X9Xn.W C.+X0X8X%XG.W n.9XeXqX4X3X7X4X7Xn.W J.~.0X0X%XH.W ^.qX4XX.X , g e.2 >.6.",
"t E x.x.{ ( ( L.9XwXXX_.#X6XeXeX2X#X'..XqXeXeXeXqXeXeXqXXXL.#X6XwXwX6X#X_.XXqXqXx.  ; e./.4 =.6.",
"# +.3X7X#XK.Q n.qXeXwX9XeXeXeXeXeXwX9XwXeXeXeXeXeXeXeXeXwXqXwXeXeXeXeXwXwXqXeXqXv.x ; e.(.g :.s.",
"O o.7XeX0X2X-X,XeXeXeXeXeXeXeXeXeXeXeXwX9X9X9X9XqXqX9XwX9XqXeXeXeXeXeXeXeXeXeXeX,X^.< v e.2 :.6.",
"O ` #X0XeXwXwXwXeXeXeXeXeXeXeXeXeXeX9X.Xn.b.b.x.b.b.c.x.b.).4XeXeXeXeXeXeXeXeXeXwX{.r r b 2 :.s.",
"# ( T.2X0XeXeXeXeXeXeXeXeXeXeXeXeXeX9Xb.j d d d d f d f d L XXeXeXeXeXeXeXeXeXeXeX{.r v b , :.s.",
"a T _ Q.2XeXeXeXeXeXeXeXeXeXeXeXeXeX7Xo.% & M M f f & M % d .XwXeXeXeXeXeXeXeXeXeX{.r r b , :.s.",
"i.t.w &.P..X2X0XeXeXeXeXeXeXeXeXeXeXqXb.G V A S S S S V B ! XXeXeXeXeXeXeXeXwX6X-X^.4 v e.2 :.s.",
"d.y.t.D G ` T.:X0XeXeXeXeXeXeXeXeXeXwXXXc.N A $.m.$.@.V Q '.3XeXeXeXeXeXeXwX0XOXD.x < e./.g ,.w.",
"l.d.p.y 9 w ' I.2XwXeXeXeXeXeXeXeXeXeXwXXX..( @.@.#.] Q n.7XeXeXeXeXeXeXeXeX5XF.P 0 e r./.,.3.h.",
"l.l.d.a.u.t.z _ Q.9XeXeXeXeXeXeXeXeXeXeXqX|.x.B f f G '.4XeXeXeXeXeXeXeXeX0X.XG a u.6.,.;.6.g.h.",
"l.f.l.l.j.p.s T { 1XwXwXeXeXeXeXeXeXeXeXeXqX'.+.+.X.b.,XeXeXeXeXeXeXeXeXwX2XI.j a a.s.6.>.s.f.j.",
"l.l.l.l.l.j.i.u G  XwXeXeXeXeXeXeXeXeXeXeXeXqX,X,X,X,XwXeXeXeXeXeXeXeXeX8XOX&.q s d.j.d.6.f.j.j.",
"f.l.f.l.l.l.a.p j K.>XwXeXeXeXeXeXeXeXeXeXeXeXeXeXeXeXeXeXeXeXeXeXeXeX0X$X&.P s u.l.l.f.f.j.j.j.",
"l.l.l.l.l.l.h.2.w ' T.6XwXeXeXeXeXeXeXeXeXeXeXeXeXeXeXeXeXeXeXeXeXeX0X%XN.P u i.f.l.l.l.l.j.j.l.",
"l.l.l.l.l.l.h.p.t.F [ Q.8XwXwXwXwXeXeXeXeXeXeXeXeXeXeXeXeXeXeXwXwX0X=XU.P R t.d.j.k.l.k.j.j.j.j.",
"l.f.l.l.l.l.l.l.u.p P &.OX:X:X:X8XeXeXeXeXeXeXeXeXeXeXeXeXeXeX8X:X:XK.( u 2.d.f.j.k.j.w.j.j.j.j.",
"l.l.l.h.l.l.l.l.d.i.y D $.U.Y.E.$X8X0X0X0X0X0X0XwX0X0X0XwX0X8X+XU.C.( w y.d.f.l.l.j.q.w.q.j.j.j.",
"l.f.h.g.h.l.l.l.l.a.p * Z $.A.S.!.$X$X$X$X$X$X$X&X$X$X$X$X$X$XF.I I T 1.a.d.l.l.l.l.j.j.j.j.l.j.",
"j.j.w.g.q.j.l.h.i.u.a h c [ A.S.S.S.S.S.A.Z.B.Z.A.S.R.S.S.R.E.{ D l a 4.u.h.j.l.l.l.l.l.l.l.l.l.",
"l.j.j.j.j.j.h.4.0 0  .).'.@X=XR.S.S.S.A.B.Z N A B.A.S.S.S.R.&X@X'.). .0 0 1.h.j.l.l.l.l.l.l.l.l.",
"l.l.l.l.j.h.t.R K } ).7X0X6X&XR.S.Z.%.@.( w 0 w ( @.#.Z.A.R.$X2X9X7X).} K E 4.h.j.j.l.l.l.l.l.l.",
"l.l.l.l.h.g.u  .]. X;X9X0X=X!.S.A.$.D = q t.y.t.w = C m.A.S.!.=X0X0X,X|.'. .q g.j.j.l.l.l.l.l.l.",
"j.j.l.l.j.u.7 ` ~.2X&X&X&X!.S.A.$.U u y p p.d.p.s y u U $.A.S.!.&X&X=X*XoX` 6 3.q.j.l.l.l.l.j.l.",
"j.l.l.l.l.i.0 J V.C.C.B.C.B.B.V.U w u.p.d.l.l.l.d.p.y.w U m.B.C.C.C.C.C.V.P 0 u.j.k.l.l.l.j.l.j.",
"j.l.l.l.j.d.2.F C C C C C C C C F 2.d.l.l.l.l.f.l.f.d.2.F D C C C C C C C F 2.g.j.l.l.j.j.k.j.l.",
"l.l.j.l.j.j.g.i o . . . . . . # p p.l.l.f.l.l.l.f.f.f.a.i O o . . . . . # y g.j.l.l.l.j.l.j.l.j."
};
