/* XPM */
static char *result[] = {
/* columns rows colors chars-per-pixel */
"48 48 237 2 ",
"   c #202C1C",
".  c #1B2A2A",
"X  c #0C352D",
"o  c #17362D",
"O  c #0B3432",
"+  c #053D33",
"@  c #0C3B34",
"#  c #143A34",
"$  c #21342F",
"%  c #27392C",
"&  c #3A3E36",
"*  c #753D1E",
"=  c #4E3D27",
"-  c #04443C",
";  c #094438",
":  c #0A443C",
">  c #04493E",
",  c #154638",
"<  c #164E38",
"1  c #2B4E35",
"2  c #355F33",
"3  c #395A39",
"4  c #2C632D",
"5  c #376336",
"6  c #594C2F",
"7  c #47552C",
"8  c #5D5F2D",
"9  c #4D4534",
"0  c #444539",
"q  c #4B473A",
"w  c #534636",
"e  c #554B34",
"r  c #5B4D34",
"t  c #534B3B",
"y  c #5D4E39",
"u  c #5C5135",
"i  c #555638",
"p  c #714E28",
"a  c #664E33",
"s  c #7A4835",
"d  c #645335",
"f  c #62523B",
"g  c #6B5738",
"h  c #745936",
"j  c #466B2E",
"k  c #546D2E",
"l  c #476A37",
"z  c #5A643A",
"x  c #487736",
"c  c #557A36",
"v  c #676629",
"b  c #676739",
"n  c #76613C",
"m  c #647737",
"M  c #123B49",
"N  c #044643",
"B  c #094743",
"V  c #034943",
"C  c #034D4C",
"Z  c #144D4B",
"A  c #085445",
"S  c #03524E",
"D  c #1A5943",
"F  c #024E52",
"G  c #0B4E59",
"H  c #164B53",
"J  c #025355",
"K  c #0B5653",
"L  c #045A56",
"P  c #0B5C56",
"I  c #025459",
"U  c #0A535B",
"Y  c #055B5C",
"T  c #0A5D5C",
"R  c #2D4D43",
"E  c #2D5448",
"W  c #0E614E",
"Q  c #196948",
"!  c #15724C",
"~  c #0A6255",
"^  c #0D6B55",
"/  c #06635C",
"(  c #0C645C",
")  c #0D695E",
"_  c #136C55",
"`  c #1A6A57",
"'  c #12655D",
"]  c #146B5C",
"[  c #1A7455",
"{  c #1D755D",
"}  c #266745",
"|  c #336847",
" . c #2D7B4B",
".. c #3A7B4A",
"X. c #2A6D55",
"o. c #237955",
"O. c #297358",
"+. c #247B5C",
"@. c #2A7C5C",
"#. c #347C58",
"$. c #0B5564",
"%. c #056060",
"&. c #0C6461",
"*. c #136563",
"=. c #166A65",
"-. c #1E7468",
";. c #247B63",
":. c #257A66",
">. c #4A4943",
",. c #554E42",
"<. c #545845",
"1. c #675942",
"2. c #7C6343",
"3. c #726E4C",
"4. c #667B42",
"5. c #BC3923",
"6. c #C83227",
"7. c #914B2E",
"8. c #BA4A2C",
"9. c #B2562B",
"0. c #86673A",
"q. c #83653E",
"w. c #8A663C",
"e. c #9C7338",
"r. c #B4702F",
"t. c #B36837",
"y. c #D3631B",
"u. c #CB4D25",
"i. c #DA652C",
"p. c #D47629",
"a. c #DD6435",
"s. c #D67937",
"d. c #E76D36",
"f. c #875E41",
"g. c #856941",
"h. c #886844",
"j. c #88774D",
"k. c #B07940",
"l. c #34823D",
"z. c #588337",
"x. c #5F943B",
"c. c #658A3A",
"v. c #66943B",
"b. c #6A9438",
"n. c #78973E",
"m. c #4BB43C",
"M. c #74A43D",
"N. c #79A53A",
"B. c #76AB3D",
"V. c #7DAB3D",
"C. c #7DB23D",
"Z. c #4AC92D",
"A. c #4ACC36",
"S. c #4AC43C",
"D. c #45CC3D",
"F. c #49CB3C",
"G. c #51CA39",
"H. c #49D335",
"J. c #35894B",
"K. c #3D9A4E",
"L. c #298458",
"P. c #2C845D",
"I. c #2D895C",
"U. c #378855",
"Y. c #30865C",
"T. c #338B5C",
"R. c #398B5E",
"E. c #2F905D",
"W. c #3D9C56",
"Q. c #379758",
"!. c #3B935D",
"~. c #3CA646",
"^. c #3FA35E",
"/. c #2C8363",
"(. c #2C8668",
"). c #318563",
"_. c #348A62",
"`. c #348768",
"'. c #3B9363",
"]. c #3A9A67",
"[. c #318270",
"{. c #488347",
"}. c #568948",
"|. c #439349",
" X c #57934B",
".X c #448852",
"XX c #489757",
"oX c #419E53",
"OX c #429B5B",
"+X c #6A9042",
"@X c #739342",
"#X c #45AD45",
"$X c #44A44D",
"%X c #46A74C",
"&X c #49AC4D",
"*X c #46B747",
"=X c #4ABE45",
"-X c #4CB14F",
";X c #50B14B",
":X c #45A354",
">X c #49A455",
",X c #44AA54",
"<X c #4BAB54",
"1X c #45A35B",
"2X c #4AA35B",
"3X c #47A95C",
"4X c #4CAC5C",
"5X c #4EB851",
"6X c #69A445",
"7X c #77A944",
"8X c #74B447",
"9X c #7CB244",
"0X c #449765",
"qX c #429C62",
"wX c #47A663",
"eX c #4BA362",
"rX c #4BC244",
"tX c #4DC54E",
"yX c #A68734",
"uX c #80AC3C",
"iX c #85B83F",
"pX c #DC8A3A",
"aX c #E58D35",
"sX c #E2A83F",
"dX c #8CC53F",
"fX c #83AC44",
"gX c #82B341",
"hX c #85BC42",
"jX c #89BE41",
"kX c #85BD48",
"lX c #94BA48",
"zX c #E3AC45",
"xX c #8EC542",
"cX c #8AC346",
"vX c #8EC841",
"bX c #90C743",
"nX c #90C841",
/* pixels */
"xXxXbXxXbXbXbXbXxXbXxXnXxXxXvXxXxXvXdXxXdXdXhXcXhXcXcXxXbXbXbXbXxXxXxXxXxXbXbXdXbXbXbXbXbXxXxXxX",
"xXbXbXbXdXbXxXbXxXxXbXvXxXbXxXvXdXvXC.N.N. XX.o.o. .6X9X7XjXxXxXxXxXxXxXbXdXbXbXbXbXbXbXxXcXxXxX",
"bXbXxXdXxXjXB.cXxXxXxXxXbXxXxXdXdXC.x 2 4 l.>X:X1X1X . .X. XkXcXdXxXbXxXbXbXxXdXbXbXbXbXxXxXxXdX",
"xXxXbXbXcX9XkX9XxXxXbXxXxXxXuXV.v.5 K.5XtX*X*X;X#X~.,XwXOXL.XX X7XgXxXxXdXxXbXbXbXbXbXbXdXbXxXbX",
"bXbXbXbXbXxXxXcXxXbXbXbXcXv.j x l.#XS.rX=X#X<X;X<X:X1X1X:X%XE./.L.{.C.dXC.dXxXbXbXbXbXbXbXbXbXbX",
"bXbXbXbXbXbXbXbXxXvXxXxXv.5 5 XX-XS.A.G.m.&X:XeXwX1X>X%X>XXXoXQ.Q.L..X X9X9XxXbXbXbXbXbXbXbXbXbX",
"bXbXbXbXbXbXbXbXvXcXcX+X5 U.!.wXm.D.D.A.D.S.*X=X=X-X&X%X,X3X:X-X*XoX_.O.{.hXxXbXbXbXbXbXbXbXbXbX",
"bXbXbXbXbXbXbXbXvXcX6X.XeX,X1X3X=XZ.H.H.D.F.F.G.Z.*X3X1X:XW.&XtX=X:XOXQ.Y.}.cXxXbXbXbXbXbXbXbXbX",
"xXbXdXbXxXxXbXxXbX8XR.'.Q.%X:X:X=XA.F.S.F.A.A.=X>X%X*XrX#X>X,X*XrX4XeX&XW...7XbXxXbXbXbXbXbXxXbX",
"dXbXdXbXxXbXbXbXcX6X| #.R.Q.>X>X%X5X-X#XS.S.*X,XwX~.S.G.m.>X2X:X<XXX2X%XwXU.{.vXxXbXbXbXbXbXdXbX",
"bXxXxXxXbXbXbXcXiXm l } } XX2XeX$X>X>X%X-X;X>X2X:X:X,X<X3X1X>X1X1X>XOX].eXT.{.vXxXxXnXvXbXdXbXbX",
"xXnXxXxXcXbXcXlXk 2.l K.#.4 Q.OX>X>X:X:X1X>X>X2X2X1X:X:X>X:X:XeXW.#X^.L.L.Q E x.cXbXnXnXdXdXdXxX",
"xXbXxXbXxX9X@X3.v yX6  . .D ..|.1X^.oX:X:X>X>XoX1X>X>X:X2X1X2X0XOX%X1X+.W ) ` 3 B.bXbXbXdXdXnXbX",
"bXxXbXbXxXhXlXfXr.zXt.@Xh.h.h X.<XqXQ.1X>X:X1XoXoX>X:XW.2X$X:X!.].wX!.{ ;.].P.| c cXxXbXxXbXbXbX",
"dXbXdXbXbXxXfXE 7.d.p.aXaXa.s =.T._.Y.OX3X>XOXQ.oX2XW.U.>X>X1XL.[ L.! ( /.1XoXX.3 9XxXbXbXxXxXxX",
"bXbXbXbXbXjX}.% * y.p.a.u.u.s ] L.@.+.@.R.'.'.T.U.OX_.@.'.W.I.[ -.(./.{ P.oXoX'.| M.xXxXbXbXbXxX",
"bXbXbXvXvXuXE H E s 7.5.5.7.<.[ `.I./.@.o.@.)././.R.P.P.`.T.[ { `.(.Y.`.@.T.'./.D z.cXcXbXbXbXbX",
"bXbXnXvXnXC.E ^ @.U.| 9 R Y.I.XX0X/.(.)./.)._.T.).P.Y.).).P.P./.P.T.L.).:.{ (.o.< x jXxXbXbXbXbX",
"bXxXxXcXvXM.} ' W ! /.J.XXXXOX%XOXU._._._.Y.Y.P.Y.).`./.).R.I.U.'.'.L.Y.:.] ' ` A x 7XcXxXbXbXbX",
"bXbXxXdXdX2 A &.] ^ [ _.wXXX:X$X~.oX>X2XOXU./.`.).Y.'.R.P.(.(.!.>X>X'.:.{ P K P P 1 6X9XxXbXbXbX",
"bXbXxXxXjX3 K :.[._ ( ^ L.E.Q.4X0XeX1X:X3XOXY./.(.Q.:X,XT.;.-.o.K.,XL.*.P A A P ~ B v.cXxXxXbXbX",
"xXbXbXbXjX3 W /.;.) &.( =._ [ E._.'.W.:X:XI.{ =._ L.:XwX'._ ~ ~ [ { _ T L T *.*.) B v.xXbXbXxXbX",
"bXxXxXbXjX5 A ~ T &.T &.=.] ] =.' ] +.;.+._ ~ &.~ _ I._.{ ) ) ( / =.P L U ( ' &./ : b.xXbXbXxXxX",
"xXxXbXxXjX3 A J U U U T { /.-.P ( ( &.( ( ( ] ( *.&.P ~ P Y / &.&.&.&.&.U ~ ] $.U : b.xXbXxXxXbX",
"bXxXxXbXiX2 , P J G F P :.(.] L &./ ^ &.&.&.&.&.) ( / T / ) ) ' ' / ' =.L Y Y U Y M b.cXbXbXbXdX",
"bXxXbXbXiX5 , V U H C L ( &.L J / &.&.( T %.&.( ) ( %.%.' ) ' ) T ~ &./ G P K $.P B v.dXdXbXbXxX",
"dXbXxXbXdX2 , V V C C J J J J S J / / Y I L Y Y Y Y Y Y %.&.' U J S L G E | ; H U o b.dXcXdXxXbX",
"bXbXdXbXdXz., , B B V J I J I J J J J Y I J I I I L J J Y P P U U J A ,.7 ~.} < M 2 B.7X7XB.xXbX",
"bXbXbXxXdXiX3 # O ; > N C C C C C J J J J J J I I I J J I I J I U H & e.q +.K.< R c dXcXcXcXbXbX",
"bXbXbXbXvXcX@Xl 1 ; V > N N N N V C C F S C I I I I J F I I I J U Z w.sXr.b 3.z h c.iXnXnXbXbXbX",
"bXbXbXbXxXvXxX9Xj ; : - > - N N N N V V V V C J F F C V C I U J C - p p.d.aXpXp.t.uXnXnXbXbXbXbX",
"bXbXxXxXxXxXxXxXN.1 @ + ; B - - > N N V - - > C C V N + C N C B A + = t.p.s.i.u.t.lXbXbXbXbXbXbX",
"vXbXxXbXbXbXbXcXbXM.2 , o O , B > > : - ; + - > N - + + > N N : > ;   s 9.8.6.8.k.lXbXbXbXbXvXbX",
"bXxXxXxXbXbXbXbXxXxXiXc.l 5 @ : ; - V V + X O @ + @ @ + - - > : : < j k v s s m M.cXbXbXbXxXxXxX",
"xXxXbXxXbXbXbXbXbXxXbXjXbXC.j o o , - + O . $ . . $ o X ; - : X 1 c.dXdX9X6Xx.gXvXxXbXbXnXxXbXxX",
"bXbXxXbXbXbXbXbXxXxXdXbXbXxXgXv.3 % % % % & 0 0 1 = & $ $ % % x M.xXbXnXxXxXdXbXxXbXbXbXbXbXxXbX",
"dXbXbXxXxXxXbXbXbXbXbXbXxXxXjXfXz f 2.1.1.f r e w t w q t t q m jXcXxXbXxXxXdXbXxXbXbXbXbXbXxXbX",
"bXbXbXcXC.jXbXbXjXbXdXbXbXxXdXuX8 n g.g.h.n g r a a y e y u e m iXxXbXxXdXbXbXbXbXbXbXbXbXxXxXxX",
"dXbXdX7X9X8XcXbXnXbXbXdXbXbXxXn.g 2.g.w.w.w.h a y y t e r 6 e <.@XbXxXxXbXxXbXbXbXbXbXxXxXnXbXxX",
"bXbXxXjXxXxXbXbXbXbXbXbXdXbXiXm g 0.q.w.w.h.2.d y y u 6 r r u ,.m xXxXbXbXbXdXbXbXbXxXcX9XiXxXbX",
"bXbXbXbXbXbXbXbXbXbXbXbXxXiXN.d 2.j.g.g.h.g.2.f y f r r r u d r i m jXxXbXbXbXbXbXbXxX9XkX9XcXbX",
"bXbXbXbXbXbXbXbXbXbXbXbXbXN.7 g g.2.g f.h.q.2.f r y f r y y e 9 ,.<.jXxXbXbXbXxXbXbXxXcXxXcXxXbX",
"bXbXbXbXbXbXbXbXbXbXbXbXbXN.i 6 d f 6 h q.h g e w a d y e t >.i i M.xXxXbXxXxXxXxXxXxXbXbXbXbXbX",
"bXbXbXbXbXbXbXcXjXxXbXbXbXdXM.z i t e a h n a 9 w y r r q 0 <.b.jXnXbXbXbXxX9X7X7XvXbXbXbXbXbXbX",
"bXxXbXbXbXbXxX7XB.V.iXbXbXjXnXbXfXc.f 6 g 2.e t q ,.a e q 4.gXbXbXxXbXxXbXxXxXxXxXbXbXbXbXbXxXxX",
"bXbXxXbXxXbXxXxXxXdXnXbXbXbXbXbXbXbXfXk i 1.w b 4.>.w t t 7XxXbXxXbXbXxXbXbXxXxXxXbXbXbXbXbXxXbX",
"bXdXxXbXbXbXbXbXbXxXbXbXbXjXbXbXbXjXbXuXz q z fXlX+X>.t @XjXbXbXbXxXxXbXbXdXbXxXbXbXbXbXbXbXbXxX",
"bXxXbXxXxXbXbXbXxXbXnXdXbXbXbXbXbXbXbXjXfX+XuXjXjXhX+Xn.jXbXbXbXdXxXbXxXxXbXxXxXbXbXbXbXbXbXdXxX"
};
